# xmcd
#
# Track frame offsets: 
#        150
#        19735
#        35892
#        56354
#        80584
#        98556
#        116262
#        131791
#        148052
#        167683
#        183625
#        203247
#        222511
#        245288
#        268116
#        284143
#        305506
#        324507
#
# Disc length: 4350 seconds
#
# Revision: 0
# Processed by: cddbd v1.5.2PL0 Copyright (c) Steve Scherf et al.
# Submitted via: ExactAudioCopy v0.99pb5
#
DISCID=1410fc12
DTITLE=Various Artist - Lacrimi de iubire
DYEAR=1900
DGENRE=Manele
TTITLE0=Nicolae Guta - Lacrimi de iubire
TTITLE1=Adriana Antoni - Eu sufar mult
TTITLE2=Adide la Valcea - Lacrimile-mi stau pe fata
TTITLE3=Florin Peste si Laura - Cine nu ar vrea
TTITLE4=Liviu si Daniela - Plang si-mi amintesc
TTITLE5=Vali Vijelie - De ce?
TTITLE6=Geo - Tu nu-mi vrei inima
TTITLE7=Nicolae Guta si Brazilianul - Prea tarziu
TTITLE8=Liviu - Ti-am dat iubire
TTITLE9=Jean de la Craiova - Plec din viata ta
TTITLE10=Nicolae Guta - Singur
TTITLE11=Vali Vijelie - Nu te-am parasit
TTITLE12=Florin Peste - Vreau sa plang, sa uit de tot
TTITLE13=Florin si Mihaela Minune - Degeaba
TTITLE14=Adrian Minune - Am pus suflet si-am iubit
TTITLE15=Florin Minune - Ruga mea
TTITLE16=Nicolae Guta si Cristi Dules - Am plecat de-acasa
TTITLE17=Publicitate
EXTD=
EXTT0=
EXTT1=
EXTT2=
EXTT3=
EXTT4=
EXTT5=
EXTT6=
EXTT7=
EXTT8=
EXTT9=
EXTT10=
EXTT11=
EXTT12=
EXTT13=
EXTT14=
EXTT15=
EXTT16=
EXTT17=
PLAYORDER=
